<!DOCTYPE svg PUBLIC "-//W3C//DTD SVG 1.1//EN" "http://www.w3.org/Graphics/SVG/1.1/DTD/svg11.dtd">

<!-- Uploaded to: SVG Repo, www.svgrepo.com, Transformed by: SVG Repo Mixer Tools -->
<svg fill="#04bf9d" width="256px" height="256px" viewBox="0 0 32 32" version="1.1" xmlns="http://www.w3.org/2000/svg">

<g id="SVGRepo_bgCarrier" stroke-width="0"/>

<g id="SVGRepo_tracerCarrier" stroke-linecap="round" stroke-linejoin="round"/>

<g id="SVGRepo_iconCarrier"> <title>sun</title> <path d="M30.75 16c0-0 0-0.001 0-0.001 0-0.27-0.143-0.507-0.358-0.639l-0.003-0.002-5.215-3.159 1.455-5.92c0.014-0.054 0.022-0.116 0.022-0.179 0-0.414-0.336-0.75-0.75-0.75-0.064 0-0.126 0.008-0.185 0.023l0.005-0.001-5.922 1.454-3.157-5.215c-0.134-0.218-0.371-0.361-0.642-0.361s-0.508 0.143-0.64 0.358l-0.002 0.003-3.159 5.215-5.92-1.454c-0.054-0.014-0.115-0.022-0.178-0.022-0.414 0-0.75 0.336-0.75 0.75 0 0.063 0.008 0.125 0.023 0.184l-0.001-0.005 1.454 5.92-5.215 3.159c-0.218 0.134-0.361 0.371-0.361 0.642s0.143 0.508 0.358 0.64l0.003 0.002 5.215 3.157-1.454 5.922c-0.014 0.054-0.022 0.116-0.022 0.179 0 0.208 0.084 0.395 0.22 0.532v0c0.138 0.134 0.327 0.217 0.535 0.217 0.062 0 0.121-0.007 0.179-0.021l-0.005 0.001 5.92-1.455 3.159 5.215c0.134 0.218 0.371 0.361 0.642 0.361s0.508-0.143 0.64-0.358l0.002-0.003 3.157-5.215 5.922 1.455c0.053 0.013 0.114 0.021 0.176 0.021 0.208 0 0.397-0.083 0.535-0.218l-0 0c0.135-0.136 0.219-0.324 0.219-0.531 0-0.064-0.008-0.126-0.023-0.185l0.001 0.005-1.455-5.922 5.215-3.157c0.218-0.134 0.361-0.37 0.361-0.641 0-0 0-0.001 0-0.001v0zM23.807 11.476c-0.804-1.373-1.921-2.484-3.258-3.256l-0.043-0.023 4.37-1.073zM18.91 22.969c-0.853 0.363-1.844 0.574-2.885 0.574-4.164 0-7.539-3.375-7.539-7.539s3.375-7.539 7.539-7.539c4.164 0 7.539 3.375 7.539 7.539 0 1.041-0.211 2.033-0.593 2.935l0.019-0.049c-0.773 1.859-2.221 3.307-4.031 4.062l-0.049 0.018zM16 3.447l2.338 3.86c-0.693-0.193-1.489-0.304-2.311-0.304-0.846 0-1.664 0.117-2.44 0.337l0.063-0.015zM11.533 8.207c-1.393 0.81-2.519 1.942-3.3 3.297l-0.023 0.043-1.086-4.423zM3.447 16l3.892-2.358c-0.203 0.708-0.319 1.52-0.319 2.36 0 0.838 0.116 1.648 0.332 2.417l-0.015-0.063zM8.208 20.462c0.8 1.396 1.922 2.526 3.269 3.312l0.042 0.023-4.395 1.080zM16 28.553l-2.341-3.865c0.706 0.215 1.518 0.346 2.359 0.361l0.008 0c0.826-0.015 1.617-0.139 2.367-0.358l-0.063 0.016zM20.516 23.805c1.376-0.796 2.491-1.905 3.27-3.235l0.023-0.042 1.068 4.348zM24.725 18.319c0.195-0.694 0.306-1.491 0.306-2.314 0-0.827-0.113-1.627-0.324-2.387l0.015 0.063 3.83 2.32z"/> </g>

</svg>